<?xml version="1.0" standalone="no"?><!DOCTYPE svg PUBLIC "-//W3C//DTD SVG 1.1//EN" "http://www.w3.org/Graphics/SVG/1.1/DTD/svg11.dtd"><svg t="1619688664871" class="icon" viewBox="0 0 1032 1024" version="1.1" xmlns="http://www.w3.org/2000/svg" p-id="2157" xmlns:xlink="http://www.w3.org/1999/xlink" width="22.171875" height="22"><defs><style type="text/css"></style></defs><path d="M768 659.2H313.6c-12.8 0-19.2-6.4-19.2-19.2s6.4-19.2 19.2-19.2H768c51.2 0 108.8-32 128-64l83.2-185.6c6.4-19.2 6.4-38.4 0-57.6-12.8-19.2-38.4-25.6-70.4-25.6h-576c-6.4-6.4-12.8-12.8-12.8-25.6s6.4-19.2 19.2-19.2h576c44.8 0 83.2 19.2 102.4 44.8 19.2 25.6 19.2 57.6 0 89.6l-83.2 185.6c-25.6 57.6-96 96-166.4 96z" fill="#8a8a8a" p-id="2158"></path><path d="M838.4 825.6H409.6c-44.8 0-89.6-38.4-96-83.2l-128-537.6c-6.4-32-32-51.2-70.4-51.2H19.2C6.4 147.2 0 140.8 0 128s6.4-19.2 19.2-19.2h96c51.2 0 96 38.4 108.8 83.2l121.6 537.6c12.8 38.4 38.4 57.6 64 57.6H832c12.8 0 19.2 6.4 19.2 19.2s-6.4 19.2-12.8 19.2z" fill="#8a8a8a" p-id="2159"></path><path d="M448 889.6m-32 0a32 32 0 1 0 64 0 32 32 0 1 0-64 0Z" fill="#8a8a8a" p-id="2160"></path><path d="M736 889.6m-32 0a32 32 0 1 0 64 0 32 32 0 1 0-64 0Z" fill="#8a8a8a" p-id="2161"></path></svg>